<svg xmlns="http://www.w3.org/2000/svg" version="1.1" xmlns:xlink="http://www.w3.org/1999/xlink" xmlns:svgjs="http://svgjs.dev/svgjs" width="1500" height="1500" viewBox="0 0 1500 1500"><rect width="1500" height="1500" fill="#f0e9e6"></rect><g transform="matrix(0.6666666666666666,0,0,0.6666666666666666,249.39393939393938,438.5856950067477)"><svg viewBox="0 0 396 247" data-background-color="#f0e9e6" preserveAspectRatio="xMidYMid meet" height="935" width="1500" xmlns="http://www.w3.org/2000/svg" xmlns:xlink="http://www.w3.org/1999/xlink"><g id="tight-bounds" transform="matrix(1,0,0,1,0.2400000000000091,-0.09999999999999432)"><svg viewBox="0 0 395.52 247.2" height="247.2" width="395.52"><g><svg></svg></g><g><svg viewBox="0 0 395.52 247.2" height="247.2" width="395.52"><g transform="matrix(1,0,0,1,75.54432,106.17164409914874)"><svg viewBox="0 0 244.43135999999998 34.85671180170251" height="34.85671180170251" width="244.43135999999998"><g><svg viewBox="0 0 244.43135999999998 34.85671180170251" height="34.85671180170251" width="244.43135999999998"><g><svg viewBox="0 0 293.18108273080065 41.80858178941777" height="34.85671180170251" width="244.43135999999998"><g transform="matrix(1,0,0,1,48.7497227308007,5.77817592024515)"><svg viewBox="0 0 244.43135999999998 30.25222994892747" height="30.25222994892747" width="244.43135999999998"><g id="textblocktransform"><svg viewBox="0 0 244.43135999999998 30.25222994892747" height="30.25222994892747" width="244.43135999999998" id="textblock"><g><svg viewBox="0 0 244.43135999999998 30.25222994892747" height="30.25222994892747" width="244.43135999999998"><g transform="matrix(1,0,0,1,0,0)"><svg width="244.43135999999998" viewBox="3 -35.5 286.8 35.5" height="30.25222994892747" data-palette-color="#7f8cd9"><path d="M37.99-25L37.99 0 31.01 0 31.01-25Q31.01-25.73 30.73-26.37 30.44-27 29.97-27.48 29.49-27.95 28.86-28.22 28.22-28.49 27.49-28.49L27.49-28.49Q26.76-28.49 26.12-28.22 25.49-27.95 25.01-27.48 24.54-27 24.27-26.37 24-25.73 24-25L24-25 24 0 16.99 0 16.99-25Q16.99-25.73 16.72-26.37 16.46-27 15.98-27.48 15.5-27.95 14.87-28.22 14.23-28.49 13.5-28.49L13.5-28.49Q12.77-28.49 12.13-28.22 11.5-27.95 11.02-27.48 10.55-27 10.28-26.37 10.01-25.73 10.01-25L10.01-25 10.01 0 3 0 3-25Q3-27.17 3.82-29.09 4.64-31.01 6.07-32.43 7.5-33.86 9.41-34.68 11.33-35.5 13.5-35.5L13.5-35.5Q15.45-35.5 17.26-34.8 19.07-34.11 20.51-32.79L20.51-32.79Q21.95-34.11 23.74-34.8 25.54-35.5 27.49-35.5L27.49-35.5Q29.66-35.5 31.58-34.68 33.5-33.86 34.92-32.43 36.35-31.01 37.17-29.09 37.99-27.17 37.99-25L37.99-25ZM71.85-35.01L71.85-13.99Q71.85-11.08 70.75-8.53 69.65-5.98 67.75-4.09 65.84-2.2 63.29-1.1 60.74 0 57.83 0L57.83 0Q54.93 0 52.38-1.1 49.83-2.2 47.93-4.09 46.04-5.98 44.94-8.53 43.85-11.08 43.85-13.99L43.85-13.99 43.85-35.01 50.83-35.01 50.83-13.99Q50.83-12.55 51.38-11.28 51.93-10.01 52.88-9.06 53.83-8.11 55.11-7.56 56.39-7.01 57.83-7.01L57.83-7.01Q59.27-7.01 60.56-7.56 61.84-8.11 62.79-9.06 63.74-10.01 64.29-11.28 64.84-12.55 64.84-13.99L64.84-13.99 64.84-35.01 71.85-35.01ZM102.44-7.01L102.44 0 77.92 0 77.92-35.01 84.93-35.01 84.93-7.01 102.44-7.01ZM115.96-28L115.96 0 108.98 0 108.98-28 98.45-28 98.45-35.01 126.46-35.01 126.46-28 115.96-28ZM137.17-35.01L137.17 0 130.17 0 130.17-35.01 137.17-35.01ZM162.41-35.01L170.42-35.01 158.92 0 151.92 0 140.47-35.01 148.43-35.01 155.41-11.65 162.41-35.01ZM197.76-7.01L197.76 0 173.76 0 173.76-35.01 197.76-35.01 197.76-28 180.77-28 180.77-21 192.27-21 192.27-13.99 180.77-13.99 180.77-7.01 197.76-7.01ZM216.68-28L209.67-28 209.67-13.99 216.68-13.99Q218.12-13.99 219.39-14.54 220.66-15.09 221.61-16.04 222.57-16.99 223.11-18.27 223.66-19.56 223.66-21L223.66-21Q223.66-22.44 223.11-23.72 222.57-25 221.61-25.95 220.66-26.9 219.39-27.45 218.12-28 216.68-28L216.68-28ZM209.67-7.01L209.67 0 202.67 0 202.67-35.01 216.68-35.01Q218.61-35.01 220.39-34.51 222.17-34.01 223.73-33.09 225.28-32.18 226.56-30.9 227.84-29.61 228.75-28.05 229.67-26.49 230.17-24.71 230.67-22.92 230.67-21L230.67-21Q230.67-19.19 230.22-17.48 229.77-15.77 228.93-14.23 228.08-12.7 226.86-11.4 225.64-10.11 224.13-9.16L224.13-9.16 228.01 0 220.56 0 217.51-7.06 209.67-7.01ZM233.21-24.51L233.21-24.51Q233.21-26.68 234.04-28.59 234.87-30.49 236.3-31.92 237.72-33.35 239.63-34.18 241.53-35.01 243.71-35.01L243.71-35.01 259.77-35.01 259.77-28 243.71-28Q242.97-28 242.34-27.73 241.7-27.47 241.23-26.99 240.75-26.51 240.48-25.88 240.21-25.24 240.21-24.51L240.21-24.51Q240.21-23.78 240.48-23.13 240.75-22.49 241.23-22.01 241.7-21.53 242.34-21.26 242.97-21 243.71-21L243.71-21 250.71-21Q252.89-21 254.8-20.18 256.72-19.36 258.15-17.93 259.57-16.5 260.39-14.59 261.21-12.67 261.21-10.5L261.21-10.5Q261.21-8.33 260.39-6.42 259.57-4.52 258.15-3.09 256.72-1.66 254.8-0.83 252.89 0 250.71 0L250.71 0 235.16 0 235.16-7.01 250.71-7.01Q251.44-7.01 252.08-7.28 252.71-7.54 253.19-8.02 253.67-8.5 253.94-9.13 254.2-9.77 254.2-10.5L254.2-10.5Q254.2-11.23 253.94-11.87 253.67-12.5 253.19-12.98 252.71-13.45 252.08-13.72 251.44-13.99 250.71-13.99L250.71-13.99 243.71-13.99Q241.53-13.99 239.63-14.82 237.72-15.65 236.3-17.08 234.87-18.51 234.04-20.42 233.21-22.34 233.21-24.51ZM289.8-7.01L289.8 0 265.8 0 265.8-35.01 289.8-35.01 289.8-28 272.8-28 272.8-21 284.3-21 284.3-13.99 272.8-13.99 272.8-7.01 289.8-7.01Z" opacity="1" transform="matrix(1,0,0,1,0,0)" fill="#7f8cd9" class="wordmark-text-0" data-fill-palette-color="primary" id="text-0"></path></svg></g></svg></g></svg></g></svg></g><g><svg viewBox="0 0 41.6078972933777 41.80858178941777" height="41.80858178941777" width="41.6078972933777"><g><svg xmlns="http://www.w3.org/2000/svg" xmlns:xlink="http://www.w3.org/1999/xlink" version="1.1" x="0" y="0" viewBox="11.584215663713081 8.404377111144978 81.22305069061989 81.61480821875816" enable-background="new 0 0 100 100" xml:space="preserve" height="41.80858178941777" width="41.6078972933777" class="icon-icon-0" data-fill-palette-color="accent" id="icon-0"><g fill="#7f8cd9" data-fill-palette-color="accent"><g fill="#7f8cd9" data-fill-palette-color="accent"><path fill="#7f8cd9" d="M30.3 85.656H30.296C29.536 86.416 28.52 86.982 27.279 87.331L18.823 89.72C16.566 90.356 14.484 89.967 13.116 88.658 11.743 87.347 11.263 85.276 11.798 82.998L13.841 74.32C14.159 72.97 14.729 71.884 15.539 71.07 17.229 69.372 20.203 68.892 23.033 71.622L29.632 77.996C30.977 79.306 31.694 80.787 31.71 82.292 31.719 83.539 31.219 84.74 30.3 85.656" data-fill-palette-color="accent"></path></g></g><g fill="#7f8cd9" data-fill-palette-color="accent"><path fill="#7f8cd9" d="M42.122 79.007A11.52 11.52 0 0 1 33.917 75.611 11.56 11.56 0 0 1 30.528 67.399 8.5 8.5 0 0 1 23.599 64.972C20.296 61.668 20.296 56.295 23.599 52.991L65.818 10.773C66.011 10.58 66.221 10.409 66.442 10.261 71.083 6.523 79.229 8.548 85.948 15.267 92.715 22.032 94.706 30.043 90.884 34.905A3.4 3.4 0 0 1 90.602 35.261C90.52 35.381 90.354 35.579 90.166 35.765L50.32 75.61A11.5 11.5 0 0 1 42.122 79.007M75.795 28.421C75.644 28.661 75.461 28.886 75.252 29.095L39.531 64.82A3.664 3.664 0 0 0 39.535 69.996C40.904 71.372 43.331 71.38 44.703 69.996L84.42 30.282A8 8 0 0 1 84.617 30.026C85.378 29.134 84.552 25.098 80.334 20.88 76.03 16.577 72.184 15.739 71.378 16.484A3 3 0 0 1 71.071 16.748L29.214 58.605A0.535 0.535 0 0 0 29.214 59.356C29.459 59.597 29.711 59.608 29.963 59.356L67.738 21.582C67.99 21.331 68.265 21.121 68.564 20.95 70.587 19.632 73.46 19.915 75.194 21.648 77.012 23.466 77.232 26.339 75.795 28.421" data-fill-palette-color="accent"></path></g></svg></g></svg></g></svg></g></svg></g></svg></g><path d="M180.511 100.172L180.511 35.176 3.663 35.176 3.663 212.024 180.511 212.024 180.511 147.028 178.236 147.028 178.236 209.749 5.938 209.749 5.938 37.451 178.236 37.451 178.236 100.172Z" fill="#7f8cd9" stroke="transparent" data-fill-palette-color="tertiary"></path></svg></g><defs></defs></svg><rect width="395.52" height="247.2" fill="none" stroke="none" visibility="hidden"></rect></g></svg></g></svg>